<?xml version="1.0" encoding="UTF-8"?>
<svg id="Layer_1" data-name="Layer 1" xmlns="http://www.w3.org/2000/svg" version="1.1" viewBox="0 0 1230.2 359.2">
  <defs>
    <style>
      .cls-1 {
        fill: #c0a376;
      }

      .cls-1, .cls-2 {
        fill-rule: evenodd;
      }

      .cls-1, .cls-2, .cls-3 {
        stroke-width: 0px;
      }

      .cls-2, .cls-3 {
        fill: #c0a376;
      }
    </style>
  </defs>
  <rect class="cls-3" x="337.3" y="231.6" width="182.5" height="6.6"/>
  <rect class="cls-3" x="1006.1" y="231.6" width="180.1" height="6.6"/>
  <path class="cls-1" d="M265.1,115.1h.8c0,4.4,1.7,7.2,2.1,11.2,3.9-1.2,6.8-3.5,10.8-4.6-2.2,3.1-4.6,6-7.1,8.7,3,2.5,7.2,3.7,10.8,5.4v.4h-12.1c.6,4.1,2,7.5,2.5,11.7h-.8c-1.5-3.8-4.7-5.9-6.7-9.2-2.5,2.9-5.1,5.7-7.1,9.2h-.4c-.2-3,1.7-7.4,2.1-11.2-2.8-1-7.4-.1-10.8-.4v-.8c3.4-1.2,5.9-3.3,9.6-4.2-1.3-4.2-5.3-5.8-6.7-10,3.5,1.6,6.7,3.6,10.4,5,.9-3.7,1.8-7.3,2.5-11.2Z"/>
  <g>
    <path class="cls-2" d="M140.7,29.4h25.3c37.5,3.4,68.8,12,96.4,25.8,9,4.5,17.7,9.1,26.3,13.9v1c-4.7-.7-8.4-4.3-12.4-6.5-29-15.5-64.6-26.8-107.8-26.8s-89.7,14.4-120.7,33.3v14.9c0,4,1.1,12.1.5,14.4-.5,1.9-4.9,5-7,7-5.7,5.5-9,9.9-12.9,15.4-1.9,2.7-3.7,5.8-6.5,8-1.1-5.7-1.4-12.2-2.5-17.9v-43.2c32.8-20.7,72-35,121.2-39.2Z"/>
    <path class="cls-2" d="M210.2,91.5c-4,.3-8,1.3-12.4,2.5-3.6,1-8.3,3.6-10.9,3.5-3.3-.2-8.6-5.5-12.9-7.9-16-9-35.2-15.7-61.6-14.4-19.7,1-33.8,7.1-49.2,14.4,3.3-3.8,8.3-6.4,12.9-8.9,19.5-10.6,47.2-18.2,78-13.4,7.7,1.2,14.6,3.2,21.4,5.5,13.9,4.6,26.9,11,34.8,18.9Z"/>
    <path class="cls-2" d="M152.6,330.9c0,0,0-.4,0-.5-5.7-4.8-12.4-8.4-18.4-12.9-18-13.8-33.5-28.9-48.2-45.7-6.5-16.4-11-35.2-9.9-56.6,2.1-42.8,24.6-72.1,48.7-92.4-10.1,1.3-18.4,4.5-27.3,7,2.6-3.8,7.3-5.7,11.4-8,15.9-8.8,35.3-15.1,60.6-13.9-5.5-1.8-11.5-3-17.4-3.5-47.9-3.5-78.2,21.5-95.9,49.7,6.9-1.7,13.1-4.2,20.9-5-13.6,17-25.1,36.2-28.3,63.6-5.5-8.7-9-17.7-12.9-28.3-1.5-4.2-3.3-9.9-5-15.4-1.3-4.1-4.7-12.5-4.5-16.4.1-2.2,2.8-7.2,4.5-10.4,5.1-9.9,12.9-20.2,18.9-26.3,16.2-16.4,43.3-31.3,75-31.3,22.5,0,40.6,6.8,54.6,15.4,2.3,1.4,4.7,3.8,6.5,4,2,.2,5-1.7,8.4-2.5,9.1-2.2,24.5-2,32.8,0,3.2.8,7.3,2.1,8.9,4-13.2,2.9-21.9,10.3-27.8,20.4,3.1,5,7.2,9.2,9.9,14.9,2.7,5.5,4.9,12.4,5.5,19.9.7,10.4.8,18.1,5.5,23.8-2.1,1.6-4.2-1.7-5.5-3-1.7-1.7-3.9-3.8-5-6-2.8-5.4-2.4-12-6-16.9-2.1-2.8-4.5-4.6-8.9-5.5.3,2.9,2.7,5.6,4.5,8.4,9.7,15.1,18.1,28.9,25.3,46.7,3.5,8.6,6.5,26.9-7.9,24.3-3.7,2.2-4.6,5.8-8.4,7-12.9,4-16.2-8.1-20.4-15.4-5-8.7-13.1-17.3-19.9-22.9-4.2-3.4-8.4-5.7-11.9-9.4,8.8-3,21.8-3.9,31.3-1-12.5-8.5-28.4-2.7-41.2-4-8.8-.9-16.7-5.6-21.9-11.4-5.6-6.3-12.6-24.1-6-35.8-3.1,2.7-6,7-8.4,11.4-7.2,12.9-13.3,30.9-14.4,48.7-1.3,20.8,2.5,38.5,8.4,54.1-2.1-12.4-3-26.8-1-40.2,1.6-10.2,4.3-19,7.5-26.3,1.2-2.8,1.4-5.9,4-7.5-1.1,56.9,17.9,93.7,43.2,124.2,41.8-26.5,75.4-63.3,97.9-108.3,1.5-3,2.2-6.6,5-8.9-22.2,59.3-58.5,104.1-105.8,136.6-3.2,2.2-7.6,5.1-9.4,7.5h-1.5Z"/>
  </g>
  <g>
    <path class="cls-3" d="M337.3,102h20.9v65h36.8v15.1h-57.7v-80.2Z"/>
    <path class="cls-3" d="M418.3,102h20.7v80.2h-20.7v-80.2Z"/>
    <path class="cls-3" d="M539.6,174.7c-8.2,5-19.6,8.5-33.5,8.5-27,0-43.6-15.6-43.6-40.6s17.1-41.7,44-41.7,23.8,3.2,31.7,6.8v17.6c-8.9-5.2-18.1-8.2-29.2-8.2s-25,9.8-25,25.6,9,25.1,22.9,25.1,9.6-.6,13.4-2.1v-15h-18.5v-12.7h37.7v36.6Z"/>
    <path class="cls-3" d="M565.7,102h20.9v32.2h31.8v-32.2h20.7v80.2h-20.7v-33.1h-31.8v33.1h-20.9v-80.2Z"/>
    <path class="cls-3" d="M683.2,117.1h-23.2v-15.1h67.2v15.1h-23.3v65h-20.7v-65Z"/>
    <path class="cls-3" d="M748,102h20.9v32.2h31.8v-32.2h20.7v80.2h-20.7v-33.1h-31.8v33.1h-20.9v-80.2Z"/>
    <path class="cls-3" d="M886.3,100.9c27.3,0,40.7,17.6,40.7,40.1s-13.5,42.2-40.6,42.2-42-18.2-42-40.9,13.4-41.5,41.8-41.5ZM886.3,168c13.8,0,19.2-10.9,19.2-27s-6.2-24.6-19.2-24.6-20.3,10-20.3,26,6.2,25.6,20.3,25.6Z"/>
    <path class="cls-3" d="M950,102h33.4c21.5,0,34.2,8.3,34.2,25.7s-8.1,19.8-16.3,22.4l18.7,32h-22.6l-15.4-28.2h-11.1v28.2h-20.9v-80.2ZM983.5,139.6c7.2,0,13.7-2.4,13.7-11.5s-5.4-11.2-13.8-11.2h-12.6v22.7h12.7Z"/>
    <path class="cls-3" d="M1039.5,156c7.4,6.6,17.9,11.2,29.8,11.2s11.2-3.2,11.2-7.8-5.2-7.3-12-9.3l-7.3-2.1c-14.5-4-21.8-10.1-21.8-23.5s15-23.7,31.6-23.7,24.5,4.4,28.3,6.8v19c-7.8-5.4-19.2-9.6-28.5-9.6s-10.5,2.1-10.5,6.8,3.9,7,11.6,9l8.4,2.3c13.8,3.9,21.6,10.5,21.6,22.7s-11.8,25.3-31.8,25.3-26.5-4.6-30.5-7v-20.3Z"/>
    <path class="cls-3" d="M1126.3,102h59.9v15.1h-39v14.8h39v14h-39v21.1h39v15.1h-59.9v-80.2Z"/>
  </g>
  <g>
    <path class="cls-3" d="M602.4,255.1c-5,3-11.9,5.2-20.4,5.2-16.4,0-26.4-9.5-26.4-24.6s10.4-25.3,26.7-25.3,14.4,1.9,19.2,4.1v10.7c-5.4-3.2-11-5-17.7-5s-15.2,5.9-15.2,15.5,5.5,15.2,13.9,15.2,5.8-.4,8.1-1.3v-9.1h-11.2v-7.7h22.9v22.2Z"/>
    <path class="cls-3" d="M651.6,211h20.3c13,0,20.7,5,20.7,15.6s-4.9,12-9.9,13.6l11.3,19.4h-13.7l-9.3-17.1h-6.7v17.1h-12.7v-48.6ZM672,233.8c4.4,0,8.3-1.5,8.3-7s-3.3-6.8-8.4-6.8h-7.6v13.8h7.7Z"/>
    <path class="cls-3" d="M763.4,210.4c16.6,0,24.7,10.7,24.7,24.3s-8.2,25.6-24.6,25.6-25.5-11-25.5-24.8,8.1-25.2,25.4-25.2ZM763.4,251.1c8.4,0,11.6-6.6,11.6-16.4s-3.8-14.9-11.6-14.9-12.3,6.1-12.3,15.8,3.8,15.5,12.3,15.5Z"/>
    <path class="cls-3" d="M834.8,211h12.6v29.2c0,6.6,2.8,10.9,9.4,10.9s9.3-4.5,9.3-11v-29.1h12.6v29.5c0,12.1-7.6,19.8-21.9,19.8s-22-6.7-22-19.8v-29.5Z"/>
    <path class="cls-3" d="M928.4,211h19.8c14.4,0,22,5.8,22,17s-7.8,16.9-22.2,16.9h-7v14.7h-12.7v-48.6ZM948,236.8c6.4,0,9.5-2.6,9.5-8.4s-3.3-8.2-9.3-8.2h-7.2v16.7h7Z"/>
  </g>
</svg>